<?xml version="1.0" standalone="no"?>
<!DOCTYPE svg PUBLIC "-//W3C//DTD SVG 20010904//EN"
 "http://www.w3.org/TR/2001/REC-SVG-20010904/DTD/svg10.dtd">
<svg version="1.0" xmlns="http://www.w3.org/2000/svg"
 width="513.000000pt" height="513.000000pt" viewBox="0 0 513.000000 513.000000"
 preserveAspectRatio="xMidYMid meet">
<metadata>
Created by potrace 1.14, written by Peter Selinger 2001-2017
</metadata>
<g transform="translate(0.000000,513.000000) scale(0.100000,-0.100000)"
fill="#000000" stroke="none">
<path d="M2050 5034 c-276 -81 -501 -209 -693 -394 -126 -120 -212 -235 -287
-382 -96 -190 -139 -365 -141 -577 l-1 -116 -18 72 c-10 40 -21 112 -25 160
-7 77 -11 90 -36 115 -20 20 -37 28 -63 28 -84 0 -105 -33 -136 -214 -39 -229
-36 -439 10 -651 11 -49 20 -91 20 -92 0 -2 -13 3 -30 12 -76 39 -150 -5 -150
-90 0 -115 75 -366 160 -536 54 -107 101 -181 178 -282 43 -57 44 -59 24 -73
-11 -8 -26 -30 -32 -49 -15 -45 5 -91 87 -200 209 -281 469 -480 758 -581 44
-15 82 -29 84 -30 19 -16 -169 -221 -265 -290 -66 -47 -74 -59 -74 -105 0 -43
25 -84 59 -99 25 -10 49 -9 133 5 114 19 296 71 384 110 31 14 60 25 65 25 14
0 -48 -158 -92 -235 -45 -80 -137 -189 -221 -265 -65 -58 -77 -90 -54 -144 11
-26 26 -41 52 -52 35 -15 41 -14 98 7 140 50 331 160 462 264 l67 53 33 -79
c37 -91 140 -252 157 -246 33 10 148 199 176 289 l12 37 102 -77 c116 -88 245
-165 362 -215 110 -47 130 -50 169 -32 38 18 56 51 56 101 0 31 -11 46 -98
132 -103 102 -158 174 -212 282 -35 69 -73 171 -66 177 2 2 30 -7 62 -20 148
-62 369 -118 472 -121 49 -1 56 2 83 32 49 55 37 117 -34 167 -82 57 -150 121
-213 200 -35 43 -64 84 -64 90 0 5 30 21 68 33 314 109 600 335 811 641 62 90
69 141 25 184 -29 29 -30 26 37 112 136 175 240 402 295 645 37 161 32 205
-26 235 -40 21 -82 19 -113 -5 l-26 -20 10 32 c79 267 56 835 -36 916 -38 32
-96 30 -136 -6 -29 -26 -31 -33 -40 -132 -8 -89 -30 -204 -41 -215 -2 -2 -1
39 0 90 5 123 -21 295 -63 422 -140 421 -497 765 -961 926 -148 52 -206 63
-244 47 -55 -23 -79 -111 -42 -157 9 -11 51 -37 92 -56 153 -72 284 -177 382
-307 63 -83 141 -242 168 -345 28 -102 38 -305 20 -412 -41 -255 -180 -483
-391 -642 -74 -57 -204 -129 -214 -119 -12 11 -65 272 -65 317 0 91 52 175
115 187 43 8 104 -10 153 -46 l41 -29 6 42 c9 56 -9 180 -35 249 -25 67 -79
132 -134 161 -61 32 -160 30 -246 -6 -58 -23 -70 -25 -105 -16 -50 14 -119 7
-170 -16 -81 -39 -147 -125 -281 -368 -104 -189 -192 -275 -292 -285 l-48 -4
-60 65 c-304 324 -344 836 -95 1213 102 154 250 281 424 364 94 45 115 72 103
134 -8 42 -57 86 -94 85 -15 0 -65 -11 -112 -25z m-50 -154 c-126 -76 -214
-152 -301 -262 -24 -31 -78 -82 -119 -115 -132 -105 -253 -252 -327 -397 l-35
-70 4 -149 c3 -127 1 -144 -9 -118 -28 68 -63 206 -73 287 l-11 86 36 70 c131
259 388 501 665 626 60 27 230 91 244 92 5 0 -28 -22 -74 -50z m1147 19 c111
-39 310 -141 362 -186 53 -45 143 -181 187 -283 151 -348 116 -740 -94 -1059
-53 -80 -203 -233 -283 -288 l-69 -47 0 -127 c0 -297 -66 -578 -200 -854 -61
-126 -173 -302 -234 -370 l-37 -40 34 55 c96 155 180 354 227 536 46 177 62
330 58 540 l-3 181 69 44 c86 55 220 180 286 268 251 333 289 796 97 1165 -91
175 -239 335 -407 439 -52 31 -91 57 -88 57 4 0 46 -14 95 -31z m-2015 -1179
c-22 -265 16 -470 128 -689 40 -79 44 -90 20 -61 -46 56 -120 185 -156 274
-71 176 -102 370 -84 536 5 52 10 102 10 110 0 8 20 -8 45 -35 l45 -50 -8 -85z
m-311 -174 c18 -61 21 -99 23 -276 2 -173 6 -221 25 -305 30 -129 89 -282 151
-387 40 -67 44 -76 19 -48 -127 143 -240 387 -286 617 -25 129 -25 422 2 563
l19 105 13 -99 c6 -55 22 -131 34 -170z m3567 55 c7 -72 6 -87 -13 -134 -86
-211 -306 -442 -515 -541 -34 -16 -34 -16 -10 1 152 110 234 193 319 322 95
147 158 321 177 491 l7 65 13 -62 c7 -34 17 -98 22 -142z m-1698 153 c25 -13
24 -13 -14 -14 -54 0 -119 -34 -162 -83 -19 -23 -75 -105 -124 -182 -109 -172
-170 -248 -235 -294 l-50 -36 60 66 c39 43 97 131 165 249 167 291 246 354
360 294z m-275 -673 c-49 -115 -91 -254 -121 -393 -20 -99 -27 -162 -31 -320
-7 -232 11 -401 63 -593 4 -16 3 -17 -5 -5 -15 24 -69 234 -88 345 -23 138
-23 460 1 600 19 112 65 295 93 369 15 40 24 52 53 62 70 25 71 22 35 -65z
m2091 -282 c-13 -57 -21 -69 -68 -112 -88 -79 -244 -176 -336 -207 -23 -8 -24
-8 -8 3 148 94 204 138 278 215 46 49 98 110 114 136 16 25 30 42 32 38 1 -5
-4 -38 -12 -73z m-3863 32 c15 -22 56 -73 92 -115 36 -41 65 -79 65 -84 0 -5
12 -45 26 -88 99 -305 288 -567 520 -721 30 -20 54 -37 54 -39 0 -19 -172 83
-262 155 -224 179 -392 435 -481 731 -34 113 -53 200 -44 200 2 0 16 -18 30
-39z m443 -990 c33 -16 69 -31 80 -35 11 -3 49 -42 83 -86 191 -242 482 -427
771 -489 l95 -21 -80 6 c-196 14 -428 93 -599 202 -153 98 -345 282 -446 427
l-53 78 44 -27 c24 -15 71 -40 105 -55z m3085 52 c-32 -58 -67 -83 -152 -107
-98 -28 -218 -47 -287 -45 l-47 1 58 9 c108 16 215 50 319 103 119 61 122 62
109 39z m-1024 -731 l92 -17 30 -48 c18 -27 25 -47 18 -47 -14 0 -244 112
-267 130 -12 10 -10 11 10 5 14 -3 66 -14 117 -23z m-1209 -49 c-73 -107 -224
-247 -343 -318 -22 -13 -19 -9 10 15 80 66 174 170 229 253 49 74 62 86 89 90
18 2 36 5 40 5 4 1 -7 -19 -25 -45z m372 -125 c-40 -276 -196 -545 -411 -713
l-64 -49 69 73 c167 179 277 413 301 642 7 66 7 67 58 102 28 20 53 34 55 32
3 -2 -1 -41 -8 -87z m189 -488 c11 -58 23 -116 26 -130 l6 -25 -14 25 c-8 14
-32 77 -52 141 -37 116 -37 117 -19 145 l19 28 7 -39 c4 -22 16 -87 27 -145z"/>
</g>
</svg>
