<?xml version="1.0" encoding="utf-8"?>
<!-- Generator: Adobe Illustrator 27.5.0, SVG Export Plug-In . SVG Version: 6.00 Build 0)  -->
<svg version="1.1" id="Layer_1" xmlns="http://www.w3.org/2000/svg" xmlns:xlink="http://www.w3.org/1999/xlink" x="0px" y="0px"
	 width="450.5px" height="105.8px" viewBox="0 0 450.5 105.8" style="enable-background:new 0 0 450.5 105.8;" xml:space="preserve"
	>
<style type="text/css">
	.st0{fill:#FFFFFF;}
	.st1{fill:none;stroke:#FFFFFF;stroke-linecap:round;stroke-linejoin:round;}
	.st2{fill:none;stroke:#FFFFFF;stroke-width:2;stroke-miterlimit:10;}
</style>
<g>
	<path class="st0" d="M86.4,32.1c0-4.5,5.5-6.7,12.2-6.7c12.4,0,22.7,7.4,22.7,7.4l9.9-14.4c0,0-12.8-11.3-32.6-11.3
		c-19.8,0-31.7,12.2-31.7,25c0,4.6,0.8,8.4,2.2,11.6H45.9v18.3h25.9c-3.8,10.7-14,18.3-25.9,18.3c-15.2,0-27.5-12.3-27.5-27.5
		c0-15.2,12.3-27.5,27.5-27.5c6.2,0,11.9,2.1,16.5,5.5c0.3-6.2,2.9-12.3,7.4-17.1c-7-4.3-15.2-6.7-23.9-6.7C20.5,7.1,0,27.6,0,52.9
		s20.5,45.9,45.9,45.9c9.7,0,18.6-3,26-8.1c6.4,3.8,15.9,8.1,26.9,8.1c20.1,0,35.2-8.2,35.2-27.6C133.9,38.1,86.4,49.1,86.4,32.1z
		 M98.6,80.4c-5.3,0-10-1.4-13.8-3.2c3.2-5.1,5.4-10.8,6.4-16.9c11.7,3.6,23.1,4.6,23.1,10.9C114.2,77.4,107.9,80.4,98.6,80.4z"/>
	<path class="st0" d="M154.8,50.2c6,0,10.7-2.4,14-5.2V30.7h-14.3V37h7.3v4.7c-1.8,1.3-4.2,2-6.8,2c-5.8,0-10-4.4-10-10.4v-0.1
		c0-5.6,4.2-10.2,9.4-10.2c3.8,0,6.1,1.2,8.6,3.3l4.6-5.5c-3.4-2.9-7-4.5-12.9-4.5c-10,0-17.2,7.7-17.2,17v0.1
		C137.6,43,144.6,50.2,154.8,50.2z"/>
	<path class="st0" d="M183.4,42.3h13.9l3,7.4h7.6l-14.1-33.1h-6.7L173,49.7h7.4L183.4,42.3z M190.4,25.3l4.4,10.7H186L190.4,25.3z"
		/>
	<path class="st0" d="M220.2,39.1h5.7l7,10.5h8.5l-8-11.7c4.2-1.5,7-4.9,7-10.2v-0.1c0-3.1-1-5.7-2.8-7.5c-2.2-2.2-5.4-3.3-9.6-3.3
		h-15v32.9h7.2L220.2,39.1L220.2,39.1z M220.2,23.3h7.2c3.5,0,5.7,1.6,5.7,4.7v0.1c0,2.8-2,4.6-5.5,4.6h-7.3V23.3z"/>
	<path class="st0" d="M267.3,37.9c4.2-1.5,7-4.9,7-10.2v-0.1c0-3.1-1-5.7-2.8-7.5c-2.2-2.2-5.4-3.3-9.6-3.3h-15v32.9h7.2V39.2h5.7
		l7,10.5h8.5L267.3,37.9z M267,28.1c0,2.8-2,4.6-5.5,4.6h-7.3v-9.4h7.2C264.9,23.3,267,24.9,267,28.1L267,28.1z"/>
	<polygon class="st0" points="288.1,36.3 303.6,36.3 303.6,29.9 288.1,29.9 288.1,23.2 305.7,23.2 305.7,16.8 280.9,16.8 
		280.9,49.7 305.9,49.7 305.9,43.2 288.1,43.2 	"/>
	<polygon class="st0" points="310,16.8 310,23.5 320,23.5 320,49.7 327.2,49.7 327.2,23.5 337.2,23.5 337.2,16.8 	"/>
	<path class="st0" d="M153.2,69.5c-5.7-1.5-7.1-2.2-7.1-4.3V65c0-1.6,1.5-2.9,4.2-2.9s5.6,1.2,8.6,3.2l3.8-5.4
		c-3.3-2.7-7.4-4.2-12.2-4.2c-6.7,0-11.5,3.9-11.5,9.9v0.1c0,6.5,4.3,8.4,10.9,10c5.5,1.4,6.6,2.4,6.6,4.2v0.1
		c0,1.9-1.8,3.1-4.7,3.1c-3.8,0-6.9-1.5-9.8-4l-4.3,5.1c3.9,3.5,9,5.3,13.9,5.3c7.1,0,12.1-3.7,12.1-10.2v-0.1
		C163.6,73.6,159.8,71.2,153.2,69.5z"/>
	<polygon class="st0" points="194.1,56.3 166.8,56.3 166.8,62.9 176.8,62.9 176.8,89.1 184.1,89.1 184.1,62.9 194.1,62.9 	"/>
	<path class="st0" d="M206.7,56l-14.1,33.1h7.4l3-7.4h13.9l3,7.4h7.6L213.3,56H206.7z M205.5,75.4l4.4-10.7l4.4,10.7H205.5z"/>
	<polygon class="st0" points="254.6,76.5 239.2,56.3 232.5,56.3 232.5,89.1 239.6,89.1 239.6,68.2 255.6,89.1 261.7,89.1 
		261.7,56.3 254.6,56.3 	"/>
	<path class="st0" d="M282.4,56.3h-12.8v32.9h12.8c10.3,0,17.5-7.2,17.5-16.4v-0.1C299.9,63.4,292.8,56.3,282.4,56.3z M292.3,72.8
		c0,5.8-4,9.8-9.9,9.8h-5.6V62.8h5.6c5.9,0,9.9,4.1,9.9,9.9V72.8z"/>
</g>
<g id="Layer_1_00000127734788964288441880000001060333056233658270_">
	<path class="st1" d="M438.9,55.6c7.4-7.4,10.2-19.1,7.2-30.6c-0.1,8.5-4.7,16.5-12.3,20.8c4.2-4.8,6.7-10.9,6.7-17.4
		c0-1.7-0.2-3.3-0.5-4.9c-1.2,1.5-2.5,3-4,4.4c1.4-3,2.2-6.3,2.3-9.7C434.6,9.6,426.2,3,415.7,0.5c9,3.6,15.3,12.3,15.3,22.6
		c0,9.2-5.2,17.3-12.7,21.4c1.4,13.5-3.1,23.6-7.6,30c2.1-4.7,3.9-10.8,3.9-18.1c0-8.3-3.2-16.8-3.2-19.9c0-3.1,2.2-7.9,6.9-6.3
		c-1.3-8.3-7.9-2.8-7.9-2.8c-6.6-5.1-9.1,11.8-15,13.4c1.7,1,4,0.7,6.5-0.1c-5.1,14.3-2.5,26,1,33.8c-4.5-6.4-9-16.5-7.6-30
		c-7.6-4.1-12.7-12.1-12.7-21.4c0-10.2,6.3-19,15.3-22.6c-10.4,2.5-18.8,9.1-22.6,17.8c0.1,3.3,0.9,6.6,2.3,9.7
		c-1.5-1.4-2.8-2.8-4-4.4c-0.3,1.6-0.5,3.3-0.5,4.9c0,6.5,2.5,12.5,6.7,17.4c-7.6-4.3-12.2-12.3-12.3-20.8
		c-3,11.5-0.2,23.2,7.2,30.6c-4.6-2.1-8.6-5.6-11.2-10c1.8,12.1,9.2,22,19.3,25.6c-4.3-0.3-8.4-1.7-12-4.1c6.2,10.1,16.6,16.2,27,16
		c-1.9,0.7-3.9,1.1-5.9,1.3c-1.9,3.5-4.6,6.5-8,8.7c5.6-0.7,10.8-2.6,15.1-5.5c-0.4,7-3.8,13.5-9.3,17.7c5.6-2.1,10.5-5.4,14.1-9.6
		c1.2,5.1,3,8.1,3,8.1s1.8-2.9,3-8.1c3.6,4.1,8.5,7.5,14.1,9.6c-5.5-4.3-8.9-10.8-9.3-17.7c4.3,2.9,9.5,4.8,15.1,5.5
		c-3.4-2.2-6.1-5.2-8-8.7c-2-0.2-4-0.6-5.9-1.3c10.4,0.2,20.7-5.9,27-16c-3.6,2.4-7.8,3.9-12,4.1c10.1-3.7,17.5-13.6,19.3-25.6
		C447.5,50.1,443.5,53.6,438.9,55.6z"/>
</g>
<line class="st2" x1="350.3" y1="0.5" x2="350.3" y2="105.3"/>
</svg>
